# xmcd CD database file
#
# Track frame offsets:
#	150
#	12657
#	22048
#	32898
#	44231
#	54841
#	65950
#	76131
#	86179
#	93777
#	105203
#	114616
#	124778
#	134258
#	144176
#	153636
#	162398
#	173925
#	184119
#	190076
#	200503
#	210733
#	220640
#	230925
#	242443
#
# Disc length: 3346 seconds
#
# Revision: 0
# Processed by: cddbd v1.5.2PL0 Copyright (c) Steve Scherf et al.
# Submitted via: CDex 1.51
#
DISCID=660d1019
DTITLE=Johnny Cash - The Rebel CD1
DYEAR=2013
DGENRE=Country
TTITLE0=I walk the line
TTITLE1=I got stripes
TTITLE2=In the jailhouse now
TTITLE3=Oh lonesome me
TTITLE4=Bonanza
TTITLE5=I love you because
TTITLE6=Get rhythm
TTITLE7=These hands
TTITLE8=Hey good lookin
TTITLE9=Big river
TTITLE10=Luther played the boogie
TTITLE11=Bandana
TTITLE12=Smiling Bill McCall
TTITLE13=The story of a broken heart
TTITLE14=Down the street to 301
TTITLE15=Second honeymoon
TTITLE16=Mean eyed cat
TTITLE17=Goodbye little darlin
TTITLE18=You tell me
TTITLE19=Wabash blues
TTITLE20=Straight A's in love
TTITLE21=Rock island line
TTITLE22=The troubadour
TTITLE23=Little drummer boy
TTITLE24=The Rebel - Johnny Yuma
EXTD=YEAR: 2013
EXTT0=
EXTT1=
EXTT2=
EXTT3=
EXTT4=
EXTT5=
EXTT6=
EXTT7=
EXTT8=
EXTT9=
EXTT10=
EXTT11=
EXTT12=
EXTT13=
EXTT14=
EXTT15=
EXTT16=
EXTT17=
EXTT18=
EXTT19=
EXTT20=
EXTT21=
EXTT22=
EXTT23=
EXTT24=
PLAYORDER=
